<svg width="287" height="57" viewBox="0 0 287 57" fill="none" xmlns="http://www.w3.org/2000/svg">
<g filter="url(#filter0_d_2:3)">
<path d="M12.0312 2.5L26.9062 39.625L41.7812 2.5H49.5625V48H43.5625V30.2812L44.125 11.1562L29.1875 48H24.5938L9.6875 11.25L10.2812 30.2812V48H4.28125V2.5H12.0312ZM73.2812 48.625C68.6979 48.625 64.9688 47.125 62.0938 44.125C59.2188 41.1042 57.7812 37.0729 57.7812 32.0312V30.9688C57.7812 27.6146 58.4167 24.625 59.6875 22C60.9792 19.3542 62.7708 17.2917 65.0625 15.8125C67.375 14.3125 69.875 13.5625 72.5625 13.5625C76.9583 13.5625 80.375 15.0104 82.8125 17.9062C85.25 20.8021 86.4688 24.9479 86.4688 30.3438V32.75H63.5625C63.6458 36.0833 64.6146 38.7812 66.4688 40.8438C68.3438 42.8854 70.7188 43.9062 73.5938 43.9062C75.6354 43.9062 77.3646 43.4896 78.7812 42.6562C80.1979 41.8229 81.4375 40.7188 82.5 39.3438L86.0312 42.0938C83.1979 46.4479 78.9479 48.625 73.2812 48.625ZM72.5625 18.3125C70.2292 18.3125 68.2708 19.1667 66.6875 20.875C65.1042 22.5625 64.125 24.9375 63.75 28H80.6875V27.5625C80.5208 24.625 79.7292 22.3542 78.3125 20.75C76.8958 19.125 74.9792 18.3125 72.5625 18.3125ZM114.062 48C113.729 47.3333 113.458 46.1458 113.25 44.4375C110.562 47.2292 107.354 48.625 103.625 48.625C100.292 48.625 97.5521 47.6875 95.4062 45.8125C93.2812 43.9167 92.2188 41.5208 92.2188 38.625C92.2188 35.1042 93.5521 32.375 96.2188 30.4375C98.9062 28.4792 102.677 27.5 107.531 27.5H113.156V24.8438C113.156 22.8229 112.552 21.2188 111.344 20.0312C110.135 18.8229 108.354 18.2188 106 18.2188C103.938 18.2188 102.208 18.7396 100.812 19.7812C99.4167 20.8229 98.7188 22.0833 98.7188 23.5625H92.9062C92.9062 21.875 93.5 20.25 94.6875 18.6875C95.8958 17.1042 97.5208 15.8542 99.5625 14.9375C101.625 14.0208 103.885 13.5625 106.344 13.5625C110.24 13.5625 113.292 14.5417 115.5 16.5C117.708 18.4375 118.854 21.1146 118.938 24.5312V40.0938C118.938 43.1979 119.333 45.6667 120.125 47.5V48H114.062ZM104.469 43.5938C106.281 43.5938 108 43.125 109.625 42.1875C111.25 41.25 112.427 40.0312 113.156 38.5312V31.5938H108.625C101.542 31.5938 98 33.6667 98 37.8125C98 39.625 98.6042 41.0417 99.8125 42.0625C101.021 43.0833 102.573 43.5938 104.469 43.5938ZM134.281 48H128.5V0H134.281V48ZM152.219 2.5L167.094 39.625L181.969 2.5H189.75V48H183.75V30.2812L184.312 11.1562L169.375 48H164.781L149.875 11.25L150.469 30.2812V48H144.469V2.5H152.219ZM220.312 48C219.979 47.3333 219.708 46.1458 219.5 44.4375C216.812 47.2292 213.604 48.625 209.875 48.625C206.542 48.625 203.802 47.6875 201.656 45.8125C199.531 43.9167 198.469 41.5208 198.469 38.625C198.469 35.1042 199.802 32.375 202.469 30.4375C205.156 28.4792 208.927 27.5 213.781 27.5H219.406V24.8438C219.406 22.8229 218.802 21.2188 217.594 20.0312C216.385 18.8229 214.604 18.2188 212.25 18.2188C210.188 18.2188 208.458 18.7396 207.062 19.7812C205.667 20.8229 204.969 22.0833 204.969 23.5625H199.156C199.156 21.875 199.75 20.25 200.938 18.6875C202.146 17.1042 203.771 15.8542 205.812 14.9375C207.875 14.0208 210.135 13.5625 212.594 13.5625C216.49 13.5625 219.542 14.5417 221.75 16.5C223.958 18.4375 225.104 21.1146 225.188 24.5312V40.0938C225.188 43.1979 225.583 45.6667 226.375 47.5V48H220.312ZM210.719 43.5938C212.531 43.5938 214.25 43.125 215.875 42.1875C217.5 41.25 218.677 40.0312 219.406 38.5312V31.5938H214.875C207.792 31.5938 204.25 33.6667 204.25 37.8125C204.25 39.625 204.854 41.0417 206.062 42.0625C207.271 43.0833 208.823 43.5938 210.719 43.5938ZM242.094 6V14.1875H248.406V18.6562H242.094V39.625C242.094 40.9792 242.375 42 242.938 42.6875C243.5 43.3542 244.458 43.6875 245.812 43.6875C246.479 43.6875 247.396 43.5625 248.562 43.3125V48C247.042 48.4167 245.562 48.625 244.125 48.625C241.542 48.625 239.594 47.8438 238.281 46.2812C236.969 44.7188 236.312 42.5 236.312 39.625V18.6562H230.156V14.1875H236.312V6H242.094ZM269.219 48.625C264.635 48.625 260.906 47.125 258.031 44.125C255.156 41.1042 253.719 37.0729 253.719 32.0312V30.9688C253.719 27.6146 254.354 24.625 255.625 22C256.917 19.3542 258.708 17.2917 261 15.8125C263.312 14.3125 265.812 13.5625 268.5 13.5625C272.896 13.5625 276.312 15.0104 278.75 17.9062C281.188 20.8021 282.406 24.9479 282.406 30.3438V32.75H259.5C259.583 36.0833 260.552 38.7812 262.406 40.8438C264.281 42.8854 266.656 43.9062 269.531 43.9062C271.573 43.9062 273.302 43.4896 274.719 42.6562C276.135 41.8229 277.375 40.7188 278.438 39.3438L281.969 42.0938C279.135 46.4479 274.885 48.625 269.219 48.625ZM268.5 18.3125C266.167 18.3125 264.208 19.1667 262.625 20.875C261.042 22.5625 260.062 24.9375 259.688 28H276.625V27.5625C276.458 24.625 275.667 22.3542 274.25 20.75C272.833 19.125 270.917 18.3125 268.5 18.3125Z" fill="white"/>
<path d="M12.0312 2.5L14.816 1.38421L14.0611 -0.5H12.0312V2.5ZM26.9062 39.625L24.1215 40.7408L26.9062 47.691L29.691 40.7408L26.9062 39.625ZM41.7812 2.5V-0.5H39.7514L38.9965 1.38421L41.7812 2.5ZM49.5625 2.5H52.5625V-0.5H49.5625V2.5ZM49.5625 48V51H52.5625V48H49.5625ZM43.5625 48H40.5625V51H43.5625V48ZM43.5625 30.2812L40.5638 30.1931L40.5625 30.2371V30.2812H43.5625ZM44.125 11.1562L47.1237 11.2444L41.3448 10.0291L44.125 11.1562ZM29.1875 48V51H31.2084L31.9677 49.1272L29.1875 48ZM24.5938 48L21.8137 49.1276L22.5732 51H24.5938V48ZM9.6875 11.25L12.4675 10.1224L6.68896 11.3435L9.6875 11.25ZM10.2812 30.2812H13.2812V30.2345L13.2798 30.1877L10.2812 30.2812ZM10.2812 48V51H13.2812V48H10.2812ZM4.28125 48H1.28125V51H4.28125V48ZM4.28125 2.5V-0.5H1.28125V2.5H4.28125ZM9.24647 3.61579L24.1215 40.7408L29.691 38.5092L14.816 1.38421L9.24647 3.61579ZM29.691 40.7408L44.566 3.61579L38.9965 1.38421L24.1215 38.5092L29.691 40.7408ZM41.7812 5.5H49.5625V-0.5H41.7812V5.5ZM46.5625 2.5V48H52.5625V2.5H46.5625ZM49.5625 45H43.5625V51H49.5625V45ZM46.5625 48V30.2812H40.5625V48H46.5625ZM46.5612 30.3694L47.1237 11.2444L41.1263 11.0681L40.5638 30.1931L46.5612 30.3694ZM41.3448 10.0291L26.4073 46.8728L31.9677 49.1272L46.9052 12.2834L41.3448 10.0291ZM29.1875 45H24.5938V51H29.1875V45ZM27.3738 46.8724L12.4675 10.1224L6.90748 12.3776L21.8137 49.1276L27.3738 46.8724ZM6.68896 11.3435L7.28271 30.3748L13.2798 30.1877L12.686 11.1565L6.68896 11.3435ZM7.28125 30.2812V48H13.2812V30.2812H7.28125ZM10.2812 45H4.28125V51H10.2812V45ZM7.28125 48V2.5H1.28125V48H7.28125ZM4.28125 5.5H12.0312V-0.5H4.28125V5.5ZM62.0938 44.125L59.9206 46.1932L59.9278 46.2007L62.0938 44.125ZM59.6875 22L56.9916 20.6839L56.9873 20.6928L59.6875 22ZM65.0625 15.8125L66.6894 18.3331L66.6951 18.3294L65.0625 15.8125ZM82.8125 17.9062L80.5173 19.8381L82.8125 17.9062ZM86.4688 32.75V35.75H89.4688V32.75H86.4688ZM63.5625 32.75V29.75H60.4866L60.5634 32.825L63.5625 32.75ZM66.4688 40.8438L64.2377 42.8494L64.2484 42.8612L64.2592 42.873L66.4688 40.8438ZM82.5 39.3438L84.3433 36.9768L81.9674 35.1266L80.1261 37.5094L82.5 39.3438ZM86.0312 42.0938L88.5458 43.73L90.0488 41.4201L87.8745 39.7268L86.0312 42.0938ZM66.6875 20.875L68.8753 22.9277L68.8816 22.921L68.8878 22.9143L66.6875 20.875ZM63.75 28L60.7722 27.6354L60.3602 31H63.75V28ZM80.6875 28V31H83.6875V28H80.6875ZM80.6875 27.5625H83.6875V27.4775L83.6827 27.3926L80.6875 27.5625ZM78.3125 20.75L76.0512 22.7214L76.0575 22.7286L76.0638 22.7358L78.3125 20.75ZM73.2812 45.625C69.4226 45.625 66.5075 44.3948 64.2597 42.0493L59.9278 46.2007C63.43 49.8552 67.9733 51.625 73.2812 51.625V45.625ZM64.2669 42.0568C62.0296 39.7061 60.7812 36.4734 60.7812 32.0312H54.7812C54.7812 37.6724 56.4079 42.5023 59.9206 46.1932L64.2669 42.0568ZM60.7812 32.0312V30.9688H54.7812V32.0312H60.7812ZM60.7812 30.9688C60.7812 27.9994 61.3418 25.4676 62.3877 23.3072L56.9873 20.6928C55.4915 23.7824 54.7812 27.2298 54.7812 30.9688H60.7812ZM62.3834 23.3161C63.4549 21.1212 64.8936 19.4922 66.6894 18.3331L63.4356 13.2919C60.6481 15.0912 58.5034 17.5871 56.9916 20.6839L62.3834 23.3161ZM66.6951 18.3294C68.5346 17.1361 70.4699 16.5625 72.5625 16.5625V10.5625C69.2801 10.5625 66.2154 11.4889 63.4299 13.2956L66.6951 18.3294ZM72.5625 16.5625C76.2321 16.5625 78.7448 17.7323 80.5173 19.8381L85.1077 15.9744C82.0052 12.2885 77.6846 10.5625 72.5625 10.5625V16.5625ZM80.5173 19.8381C82.3398 22.0033 83.4688 25.359 83.4688 30.3438H89.4688C89.4688 24.5368 88.1602 19.6008 85.1077 15.9744L80.5173 19.8381ZM83.4688 30.3438V32.75H89.4688V30.3438H83.4688ZM86.4688 29.75H63.5625V35.75H86.4688V29.75ZM60.5634 32.825C60.6609 36.7217 61.8136 40.1529 64.2377 42.8494L68.6998 38.8381C67.4156 37.4096 66.6308 35.4449 66.5616 32.675L60.5634 32.825ZM64.2592 42.873C66.7258 45.5588 69.9141 46.9062 73.5938 46.9062V40.9062C71.5234 40.9062 69.9617 40.212 68.6783 38.8145L64.2592 42.873ZM73.5938 46.9062C76.0418 46.9062 78.3252 46.405 80.3023 45.2421L77.2602 40.0704C76.4039 40.5741 75.229 40.9062 73.5938 40.9062V46.9062ZM80.3023 45.2421C82.0671 44.2039 83.5911 42.8381 84.8739 41.1781L80.1261 37.5094C79.2839 38.5994 78.3287 39.4419 77.2602 40.0704L80.3023 45.2421ZM80.6567 41.7107L84.188 44.4607L87.8745 39.7268L84.3433 36.9768L80.6567 41.7107ZM83.5167 40.4575C81.2941 43.8732 78.0425 45.625 73.2812 45.625V51.625C79.8533 51.625 85.1017 49.0227 88.5458 43.73L83.5167 40.4575ZM72.5625 15.3125C69.3957 15.3125 66.6394 16.5136 64.4872 18.8357L68.8878 22.9143C69.9023 21.8197 71.0627 21.3125 72.5625 21.3125V15.3125ZM64.4997 18.8223C62.3558 21.1072 61.1991 24.1493 60.7722 27.6354L66.7278 28.3646C67.0509 25.7257 67.8525 24.0178 68.8753 22.9277L64.4997 18.8223ZM63.75 31H80.6875V25H63.75V31ZM83.6875 28V27.5625H77.6875V28H83.6875ZM83.6827 27.3926C83.492 24.032 82.5641 21.0323 80.5612 18.7642L76.0638 22.7358C76.8942 23.6761 77.5497 25.218 77.6923 27.7324L83.6827 27.3926ZM80.5738 18.7786C78.5146 16.4166 75.7289 15.3125 72.5625 15.3125V21.3125C74.2294 21.3125 75.277 21.8334 76.0512 22.7214L80.5738 18.7786ZM114.062 48L111.379 49.3416L112.208 51H114.062V48ZM113.25 44.4375L116.228 44.0743L115.464 37.8118L111.089 42.3569L113.25 44.4375ZM95.4062 45.8125L93.4091 48.0511L93.4206 48.0614L93.4323 48.0716L95.4062 45.8125ZM96.2188 30.4375L97.9821 32.8645L97.9855 32.8621L96.2188 30.4375ZM113.156 27.5V30.5H116.156V27.5H113.156ZM111.344 20.0312L109.222 22.1526L109.232 22.1618L109.241 22.1709L111.344 20.0312ZM98.7188 23.5625V26.5625H101.719V23.5625H98.7188ZM92.9062 23.5625H89.9062V26.5625H92.9062V23.5625ZM94.6875 18.6875L92.3026 16.8675L92.299 16.8722L94.6875 18.6875ZM99.5625 14.9375L98.3441 12.196L98.3337 12.2007L99.5625 14.9375ZM115.5 16.5L113.51 18.7446L113.515 18.7498L113.521 18.7551L115.5 16.5ZM118.938 24.5312H121.938V24.4947L121.937 24.4581L118.938 24.5312ZM120.125 47.5H123.125V46.8799L122.879 46.3107L120.125 47.5ZM120.125 48V51H123.125V48H120.125ZM113.156 38.5312L115.854 39.8428L116.156 39.2218V38.5312H113.156ZM113.156 31.5938H116.156V28.5938H113.156V31.5938ZM116.746 46.6584C116.747 46.6606 116.74 46.6473 116.727 46.6146C116.714 46.5822 116.697 46.5357 116.677 46.4729C116.635 46.3455 116.587 46.1714 116.534 45.9423C116.429 45.4803 116.324 44.8644 116.228 44.0743L110.272 44.8007C110.482 46.5205 110.793 48.1693 111.379 49.3416L116.746 46.6584ZM111.089 42.3569C108.942 44.5869 106.504 45.625 103.625 45.625V51.625C108.205 51.625 112.183 49.8714 115.411 46.5181L111.089 42.3569ZM103.625 45.625C100.887 45.625 98.8886 44.8714 97.3802 43.5534L93.4323 48.0716C96.2155 50.5036 99.696 51.625 103.625 51.625V45.625ZM97.4034 43.5739C95.9286 42.2582 95.2188 40.6823 95.2188 38.625H89.2188C89.2188 42.3593 90.6339 45.5752 93.4091 48.0511L97.4034 43.5739ZM95.2188 38.625C95.2188 35.9879 96.1523 34.194 97.9821 32.8645L94.4554 28.0105C90.9518 30.556 89.2188 34.2205 89.2188 38.625H95.2188ZM97.9855 32.8621C99.9725 31.4142 103.033 30.5 107.531 30.5V24.5C102.322 24.5 97.84 25.5442 94.452 28.0129L97.9855 32.8621ZM107.531 30.5H113.156V24.5H107.531V30.5ZM116.156 27.5V24.8438H110.156V27.5H116.156ZM116.156 24.8438C116.156 22.1851 115.338 19.7502 113.447 17.8916L109.241 22.1709C109.766 22.6873 110.156 23.4608 110.156 24.8438H116.156ZM113.465 17.9099C111.509 15.954 108.843 15.2188 106 15.2188V21.2188C107.865 21.2188 108.762 21.6919 109.222 22.1526L113.465 17.9099ZM106 15.2188C103.414 15.2188 101.023 15.881 99.0182 17.377L102.607 22.1856C103.394 21.5982 104.461 21.2188 106 21.2188V15.2188ZM99.0182 17.377C97.016 18.8711 95.7188 20.9612 95.7188 23.5625H101.719C101.719 23.2054 101.817 22.7747 102.607 22.1856L99.0182 17.377ZM98.7188 20.5625H92.9062V26.5625H98.7188V20.5625ZM95.9062 23.5625C95.9062 22.6337 96.218 21.6317 97.076 20.5028L92.299 16.8722C90.782 18.8683 89.9062 21.1163 89.9062 23.5625H95.9062ZM97.0724 20.5075C97.9418 19.3683 99.1481 18.4121 100.791 17.6743L98.3337 12.2007C95.8936 13.2963 93.8499 14.84 92.3026 16.8675L97.0724 20.5075ZM100.781 17.6789C102.427 16.9475 104.267 16.5625 106.344 16.5625V10.5625C103.503 10.5625 100.823 11.0942 98.3441 12.1961L100.781 17.6789ZM106.344 16.5625C109.745 16.5625 112.006 17.4111 113.51 18.7446L117.49 14.2554C114.578 11.6723 110.734 10.5625 106.344 10.5625V16.5625ZM113.521 18.7551C114.995 20.0481 115.872 21.8758 115.938 24.6044L121.937 24.4581C121.836 20.3534 120.421 16.8269 117.479 14.2449L113.521 18.7551ZM115.938 24.5312V40.0938H121.938V24.5312H115.938ZM115.938 40.0938C115.938 43.4041 116.352 46.3306 117.371 48.6893L122.879 46.3107C122.314 45.0027 121.938 42.9918 121.938 40.0938H115.938ZM117.125 47.5V48H123.125V47.5H117.125ZM120.125 45H114.062V51H120.125V45ZM104.469 46.5938C106.826 46.5938 109.06 45.9769 111.124 44.7861L108.126 39.5889C106.94 40.2731 105.736 40.5938 104.469 40.5938V46.5938ZM111.124 44.7861C113.201 43.5877 114.831 41.9478 115.854 39.8428L110.458 37.2197C110.023 38.1147 109.299 38.9123 108.126 39.5889L111.124 44.7861ZM116.156 38.5312V31.5938H110.156V38.5312H116.156ZM113.156 28.5938H108.625V34.5938H113.156V28.5938ZM108.625 28.5938C104.889 28.5938 101.595 29.1231 99.1409 30.5593C96.4389 32.1408 95 34.6877 95 37.8125H101C101 36.7915 101.332 36.229 102.172 35.7376C103.259 35.1009 105.278 34.5938 108.625 34.5938V28.5938ZM95 37.8125C95 40.3645 95.8908 42.6766 97.8764 44.3542L101.749 39.7708C101.318 39.4067 101 38.8855 101 37.8125H95ZM97.8764 44.3542C99.7288 45.9191 102.011 46.5938 104.469 46.5938V40.5938C103.135 40.5938 102.313 40.2476 101.749 39.7708L97.8764 44.3542ZM134.281 48V51H137.281V48H134.281ZM128.5 48H125.5V51H128.5V48ZM128.5 0V-3H125.5V0H128.5ZM134.281 0H137.281V-3H134.281V0ZM134.281 45H128.5V51H134.281V45ZM131.5 48V0H125.5V48H131.5ZM128.5 3H134.281V-3H128.5V3ZM131.281 0V48H137.281V0H131.281ZM152.219 2.5L155.004 1.38421L154.249 -0.5H152.219V2.5ZM167.094 39.625L164.309 40.7408L167.094 47.691L169.879 40.7408L167.094 39.625ZM181.969 2.5V-0.5H179.939L179.184 1.38421L181.969 2.5ZM189.75 2.5H192.75V-0.5H189.75V2.5ZM189.75 48V51H192.75V48H189.75ZM183.75 48H180.75V51H183.75V48ZM183.75 30.2812L180.751 30.1931L180.75 30.2371V30.2812H183.75ZM184.312 11.1562L187.311 11.2444L181.532 10.0291L184.312 11.1562ZM169.375 48V51H171.396L172.155 49.1272L169.375 48ZM164.781 48L162.001 49.1276L162.761 51H164.781V48ZM149.875 11.25L152.655 10.1224L146.876 11.3435L149.875 11.25ZM150.469 30.2812H153.469V30.2345L153.467 30.1877L150.469 30.2812ZM150.469 48V51H153.469V48H150.469ZM144.469 48H141.469V51H144.469V48ZM144.469 2.5V-0.5H141.469V2.5H144.469ZM149.434 3.61579L164.309 40.7408L169.879 38.5092L155.004 1.38421L149.434 3.61579ZM169.879 40.7408L184.754 3.61579L179.184 1.38421L164.309 38.5092L169.879 40.7408ZM181.969 5.5H189.75V-0.5H181.969V5.5ZM186.75 2.5V48H192.75V2.5H186.75ZM189.75 45H183.75V51H189.75V45ZM186.75 48V30.2812H180.75V48H186.75ZM186.749 30.3694L187.311 11.2444L181.314 11.0681L180.751 30.1931L186.749 30.3694ZM181.532 10.0291L166.595 46.8728L172.155 49.1272L187.093 12.2834L181.532 10.0291ZM169.375 45H164.781V51H169.375V45ZM167.561 46.8724L152.655 10.1224L147.095 12.3776L162.001 49.1276L167.561 46.8724ZM146.876 11.3435L147.47 30.3748L153.467 30.1877L152.874 11.1565L146.876 11.3435ZM147.469 30.2812V48H153.469V30.2812H147.469ZM150.469 45H144.469V51H150.469V45ZM147.469 48V2.5H141.469V48H147.469ZM144.469 5.5H152.219V-0.5H144.469V5.5ZM220.312 48L217.629 49.3416L218.458 51H220.312V48ZM219.5 44.4375L222.478 44.0743L221.714 37.8118L217.339 42.3569L219.5 44.4375ZM201.656 45.8125L199.659 48.0511L199.671 48.0614L199.682 48.0716L201.656 45.8125ZM202.469 30.4375L204.232 32.8645L204.236 32.8621L202.469 30.4375ZM219.406 27.5V30.5H222.406V27.5H219.406ZM217.594 20.0312L215.472 22.1526L215.482 22.1618L215.491 22.1709L217.594 20.0312ZM204.969 23.5625V26.5625H207.969V23.5625H204.969ZM199.156 23.5625H196.156V26.5625H199.156V23.5625ZM200.938 18.6875L198.553 16.8675L198.549 16.8722L200.938 18.6875ZM205.812 14.9375L204.594 12.196L204.584 12.2007L205.812 14.9375ZM221.75 16.5L219.76 18.7446L219.765 18.7498L219.771 18.7551L221.75 16.5ZM225.188 24.5312H228.188V24.4947L228.187 24.4581L225.188 24.5312ZM226.375 47.5H229.375V46.8799L229.129 46.3107L226.375 47.5ZM226.375 48V51H229.375V48H226.375ZM219.406 38.5312L222.104 39.8428L222.406 39.2218V38.5312H219.406ZM219.406 31.5938H222.406V28.5938H219.406V31.5938ZM222.996 46.6584C222.997 46.6606 222.99 46.6473 222.977 46.6146C222.964 46.5822 222.947 46.5357 222.927 46.4729C222.885 46.3455 222.837 46.1714 222.784 45.9423C222.679 45.4803 222.574 44.8644 222.478 44.0743L216.522 44.8007C216.732 46.5205 217.043 48.1693 217.629 49.3416L222.996 46.6584ZM217.339 42.3569C215.192 44.5869 212.754 45.625 209.875 45.625V51.625C214.455 51.625 218.433 49.8714 221.661 46.5181L217.339 42.3569ZM209.875 45.625C207.137 45.625 205.139 44.8714 203.63 43.5534L199.682 48.0716C202.466 50.5036 205.946 51.625 209.875 51.625V45.625ZM203.653 43.5739C202.179 42.2582 201.469 40.6823 201.469 38.625H195.469C195.469 42.3593 196.884 45.5752 199.659 48.0511L203.653 43.5739ZM201.469 38.625C201.469 35.9879 202.402 34.194 204.232 32.8645L200.705 28.0105C197.202 30.556 195.469 34.2205 195.469 38.625H201.469ZM204.236 32.8621C206.223 31.4142 209.283 30.5 213.781 30.5V24.5C208.572 24.5 204.09 25.5442 200.702 28.0129L204.236 32.8621ZM213.781 30.5H219.406V24.5H213.781V30.5ZM222.406 27.5V24.8438H216.406V27.5H222.406ZM222.406 24.8438C222.406 22.1851 221.588 19.7502 219.697 17.8916L215.491 22.1709C216.016 22.6873 216.406 23.4608 216.406 24.8438H222.406ZM219.715 17.9099C217.759 15.954 215.093 15.2188 212.25 15.2188V21.2188C214.115 21.2188 215.012 21.6919 215.472 22.1526L219.715 17.9099ZM212.25 15.2188C209.664 15.2188 207.273 15.881 205.268 17.377L208.857 22.1856C209.644 21.5982 210.711 21.2188 212.25 21.2188V15.2188ZM205.268 17.377C203.266 18.8711 201.969 20.9612 201.969 23.5625H207.969C207.969 23.2054 208.067 22.7747 208.857 22.1856L205.268 17.377ZM204.969 20.5625H199.156V26.5625H204.969V20.5625ZM202.156 23.5625C202.156 22.6337 202.468 21.6317 203.326 20.5028L198.549 16.8722C197.032 18.8683 196.156 21.1163 196.156 23.5625H202.156ZM203.322 20.5075C204.192 19.3683 205.398 18.4121 207.041 17.6743L204.584 12.2007C202.144 13.2963 200.1 14.84 198.553 16.8675L203.322 20.5075ZM207.031 17.6789C208.677 16.9475 210.517 16.5625 212.594 16.5625V10.5625C209.753 10.5625 207.073 11.0942 204.594 12.1961L207.031 17.6789ZM212.594 16.5625C215.995 16.5625 218.256 17.4111 219.76 18.7446L223.74 14.2554C220.828 11.6723 216.984 10.5625 212.594 10.5625V16.5625ZM219.771 18.7551C221.245 20.0481 222.122 21.8758 222.188 24.6044L228.187 24.4581C228.086 20.3534 226.671 16.8269 223.729 14.2449L219.771 18.7551ZM222.188 24.5312V40.0938H228.188V24.5312H222.188ZM222.188 40.0938C222.188 43.4041 222.602 46.3306 223.621 48.6893L229.129 46.3107C228.564 45.0027 228.188 42.9918 228.188 40.0938H222.188ZM223.375 47.5V48H229.375V47.5H223.375ZM226.375 45H220.312V51H226.375V45ZM210.719 46.5938C213.076 46.5938 215.31 45.9769 217.374 44.7861L214.376 39.5889C213.19 40.2731 211.986 40.5938 210.719 40.5938V46.5938ZM217.374 44.7861C219.451 43.5877 221.081 41.9478 222.104 39.8428L216.708 37.2197C216.273 38.1147 215.549 38.9123 214.376 39.5889L217.374 44.7861ZM222.406 38.5312V31.5938H216.406V38.5312H222.406ZM219.406 28.5938H214.875V34.5938H219.406V28.5938ZM214.875 28.5938C211.139 28.5938 207.845 29.1231 205.391 30.5593C202.689 32.1408 201.25 34.6877 201.25 37.8125H207.25C207.25 36.7915 207.582 36.229 208.422 35.7376C209.509 35.1009 211.528 34.5938 214.875 34.5938V28.5938ZM201.25 37.8125C201.25 40.3645 202.141 42.6766 204.126 44.3542L207.999 39.7708C207.568 39.4067 207.25 38.8855 207.25 37.8125H201.25ZM204.126 44.3542C205.979 45.9191 208.261 46.5938 210.719 46.5938V40.5938C209.385 40.5938 208.563 40.2476 207.999 39.7708L204.126 44.3542ZM242.094 6H245.094V3H242.094V6ZM242.094 14.1875H239.094V17.1875H242.094V14.1875ZM248.406 14.1875H251.406V11.1875H248.406V14.1875ZM248.406 18.6562V21.6562H251.406V18.6562H248.406ZM242.094 18.6562V15.6562H239.094V18.6562H242.094ZM242.938 42.6875L240.616 44.5872L240.63 44.6048L240.645 44.6221L242.938 42.6875ZM248.562 43.3125H251.562V39.6015L247.934 40.3791L248.562 43.3125ZM248.562 48L249.355 50.8934L251.562 50.2886V48H248.562ZM236.312 18.6562H239.312V15.6562H236.312V18.6562ZM230.156 18.6562H227.156V21.6562H230.156V18.6562ZM230.156 14.1875V11.1875H227.156V14.1875H230.156ZM236.312 14.1875V17.1875H239.312V14.1875H236.312ZM236.312 6V3H233.312V6H236.312ZM239.094 6V14.1875H245.094V6H239.094ZM242.094 17.1875H248.406V11.1875H242.094V17.1875ZM245.406 14.1875V18.6562H251.406V14.1875H245.406ZM248.406 15.6562H242.094V21.6562H248.406V15.6562ZM239.094 18.6562V39.625H245.094V18.6562H239.094ZM239.094 39.625C239.094 41.325 239.436 43.1458 240.616 44.5872L245.259 40.7878C245.314 40.8542 245.094 40.6333 245.094 39.625H239.094ZM240.645 44.6221C242.031 46.2653 244.063 46.6875 245.812 46.6875V40.6875C245.366 40.6875 245.14 40.6305 245.064 40.604C245.009 40.585 245.111 40.6116 245.23 40.7529L240.645 44.6221ZM245.812 46.6875C246.794 46.6875 247.952 46.5113 249.191 46.2459L247.934 40.3791C246.839 40.6137 246.164 40.6875 245.812 40.6875V46.6875ZM245.562 43.3125V48H251.562V43.3125H245.562ZM247.77 45.1066C246.482 45.4593 245.27 45.625 244.125 45.625V51.625C245.855 51.625 247.601 51.374 249.355 50.8934L247.77 45.1066ZM244.125 45.625C242.173 45.625 241.175 45.0619 240.578 44.3517L235.984 48.2108C238.013 50.6256 240.911 51.625 244.125 51.625V45.625ZM240.578 44.3517C239.875 43.5138 239.312 42.0792 239.312 39.625H233.312C233.312 42.9208 234.063 45.9237 235.984 48.2108L240.578 44.3517ZM239.312 39.625V18.6562H233.312V39.625H239.312ZM236.312 15.6562H230.156V21.6562H236.312V15.6562ZM233.156 18.6562V14.1875H227.156V18.6562H233.156ZM230.156 17.1875H236.312V11.1875H230.156V17.1875ZM239.312 14.1875V6H233.312V14.1875H239.312ZM236.312 9H242.094V3H236.312V9ZM258.031 44.125L255.858 46.1932L255.865 46.2007L258.031 44.125ZM255.625 22L252.929 20.6839L252.925 20.6928L255.625 22ZM261 15.8125L262.627 18.3331L262.633 18.3294L261 15.8125ZM278.75 17.9062L276.455 19.8381L278.75 17.9062ZM282.406 32.75V35.75H285.406V32.75H282.406ZM259.5 32.75V29.75H256.424L256.501 32.825L259.5 32.75ZM262.406 40.8438L260.175 42.8494L260.186 42.8612L260.197 42.873L262.406 40.8438ZM278.438 39.3438L280.281 36.9768L277.905 35.1266L276.064 37.5094L278.438 39.3438ZM281.969 42.0938L284.483 43.73L285.986 41.4201L283.812 39.7268L281.969 42.0938ZM262.625 20.875L264.813 22.9277L264.819 22.921L264.825 22.9143L262.625 20.875ZM259.688 28L256.71 27.6354L256.298 31H259.688V28ZM276.625 28V31H279.625V28H276.625ZM276.625 27.5625H279.625V27.4775L279.62 27.3926L276.625 27.5625ZM274.25 20.75L271.989 22.7214L271.995 22.7286L272.001 22.7358L274.25 20.75ZM269.219 45.625C265.36 45.625 262.445 44.3948 260.197 42.0493L255.865 46.2007C259.367 49.8552 263.911 51.625 269.219 51.625V45.625ZM260.204 42.0568C257.967 39.7061 256.719 36.4734 256.719 32.0312H250.719C250.719 37.6724 252.345 42.5023 255.858 46.1932L260.204 42.0568ZM256.719 32.0312V30.9688H250.719V32.0312H256.719ZM256.719 30.9688C256.719 27.9994 257.279 25.4676 258.325 23.3072L252.925 20.6928C251.429 23.7824 250.719 27.2298 250.719 30.9688H256.719ZM258.321 23.3161C259.392 21.1212 260.831 19.4922 262.627 18.3331L259.373 13.2919C256.586 15.0912 254.441 17.5871 252.929 20.6839L258.321 23.3161ZM262.633 18.3294C264.472 17.1361 266.407 16.5625 268.5 16.5625V10.5625C265.218 10.5625 262.153 11.4889 259.367 13.2956L262.633 18.3294ZM268.5 16.5625C272.17 16.5625 274.682 17.7323 276.455 19.8381L281.045 15.9744C277.943 12.2885 273.622 10.5625 268.5 10.5625V16.5625ZM276.455 19.8381C278.277 22.0033 279.406 25.359 279.406 30.3438H285.406C285.406 24.5368 284.098 19.6008 281.045 15.9744L276.455 19.8381ZM279.406 30.3438V32.75H285.406V30.3438H279.406ZM282.406 29.75H259.5V35.75H282.406V29.75ZM256.501 32.825C256.598 36.7217 257.751 40.1529 260.175 42.8494L264.637 38.8381C263.353 37.4096 262.568 35.4449 262.499 32.675L256.501 32.825ZM260.197 42.873C262.663 45.5588 265.852 46.9062 269.531 46.9062V40.9062C267.461 40.9062 265.899 40.212 264.616 38.8145L260.197 42.873ZM269.531 46.9062C271.979 46.9062 274.263 46.405 276.24 45.2421L273.198 40.0704C272.341 40.5741 271.167 40.9062 269.531 40.9062V46.9062ZM276.24 45.2421C278.005 44.2039 279.529 42.8381 280.811 41.1781L276.064 37.5094C275.221 38.5994 274.266 39.4419 273.198 40.0704L276.24 45.2421ZM276.594 41.7107L280.125 44.4607L283.812 39.7268L280.281 36.9768L276.594 41.7107ZM279.454 40.4575C277.232 43.8732 273.98 45.625 269.219 45.625V51.625C275.791 51.625 281.039 49.0227 284.483 43.73L279.454 40.4575ZM268.5 15.3125C265.333 15.3125 262.577 16.5136 260.425 18.8357L264.825 22.9143C265.84 21.8197 267 21.3125 268.5 21.3125V15.3125ZM260.437 18.8223C258.293 21.1072 257.137 24.1493 256.71 27.6354L262.665 28.3646C262.988 25.7257 263.79 24.0178 264.813 22.9277L260.437 18.8223ZM259.688 31H276.625V25H259.688V31ZM279.625 28V27.5625H273.625V28H279.625ZM279.62 27.3926C279.43 24.032 278.502 21.0323 276.499 18.7642L272.001 22.7358C272.832 23.6761 273.487 25.218 273.63 27.7324L279.62 27.3926ZM276.511 18.7786C274.452 16.4166 271.666 15.3125 268.5 15.3125V21.3125C270.167 21.3125 271.215 21.8334 271.989 22.7214L276.511 18.7786Z" fill="black"/>
</g>
<defs>
<filter id="filter0_d_2:3" x="0.28125" y="0" width="286.125" height="56.625" filterUnits="userSpaceOnUse" color-interpolation-filters="sRGB">
<feFlood flood-opacity="0" result="BackgroundImageFix"/>
<feColorMatrix in="SourceAlpha" type="matrix" values="0 0 0 0 0 0 0 0 0 0 0 0 0 0 0 0 0 0 127 0" result="hardAlpha"/>
<feOffset dy="4"/>
<feGaussianBlur stdDeviation="2"/>
<feComposite in2="hardAlpha" operator="out"/>
<feColorMatrix type="matrix" values="0 0 0 0 0 0 0 0 0 0 0 0 0 0 0 0 0 0 0.25 0"/>
<feBlend mode="normal" in2="BackgroundImageFix" result="effect1_dropShadow_2:3"/>
<feBlend mode="normal" in="SourceGraphic" in2="effect1_dropShadow_2:3" result="shape"/>
</filter>
</defs>
</svg>
