<svg width="71" height="27" viewBox="0 0 71 27" fill="none" xmlns="http://www.w3.org/2000/svg">
<path d="M19.9453 26H16.5527L3.66797 6.27734V26H0.275391V0.40625H3.66797L16.5879 20.2168V0.40625H19.9453V26ZM33.3223 26.3516C30.7441 26.3516 28.6465 25.5078 27.0293 23.8203C25.4121 22.1211 24.6035 19.8535 24.6035 17.0176V16.4199C24.6035 14.5332 24.9609 12.8516 25.6758 11.375C26.4023 9.88672 27.4102 8.72656 28.6992 7.89453C30 7.05078 31.4062 6.62891 32.918 6.62891C35.3906 6.62891 37.3125 7.44336 38.6836 9.07227C40.0547 10.7012 40.7402 13.0332 40.7402 16.0684V17.4219H27.8555C27.9023 19.2969 28.4473 20.8145 29.4902 21.9746C30.5449 23.123 31.8809 23.6973 33.498 23.6973C34.6465 23.6973 35.6191 23.4629 36.416 22.9941C37.2129 22.5254 37.9102 21.9043 38.5078 21.1309L40.4941 22.6777C38.9004 25.127 36.5098 26.3516 33.3223 26.3516ZM32.918 9.30078C31.6055 9.30078 30.5039 9.78125 29.6133 10.7422C28.7227 11.6914 28.1719 13.0273 27.9609 14.75H37.4883V14.5039C37.3945 12.8516 36.9492 11.5742 36.1523 10.6719C35.3555 9.75781 34.2773 9.30078 32.918 9.30078ZM50.9004 13.9238L55.1191 6.98047H58.916L52.6934 16.3848L59.1094 26H55.3477L50.9531 18.8809L46.5586 26H42.7793L49.1953 16.3848L42.9727 6.98047H46.7344L50.9004 13.9238ZM66.791 2.375V6.98047H70.3418V9.49414H66.791V21.2891C66.791 22.0508 66.9492 22.625 67.2656 23.0117C67.582 23.3867 68.1211 23.5742 68.8828 23.5742C69.2578 23.5742 69.7734 23.5039 70.4297 23.3633V26C69.5742 26.2344 68.7422 26.3516 67.9336 26.3516C66.4805 26.3516 65.3848 25.9121 64.6465 25.0332C63.9082 24.1543 63.5391 22.9062 63.5391 21.2891V9.49414H60.0762V6.98047H63.5391V2.375H66.791Z" fill="white"/>
<path d="M19.9453 26V27H20.9453V26H19.9453ZM16.5527 26L15.7156 26.5469L16.0115 27H16.5527V26ZM3.66797 6.27734L4.50515 5.73042L2.66797 2.91825V6.27734H3.66797ZM3.66797 26V27H4.66797V26H3.66797ZM0.275391 26H-0.724609V27H0.275391V26ZM0.275391 0.40625V-0.59375H-0.724609V0.40625H0.275391ZM3.66797 0.40625L4.50558 -0.140018L4.20967 -0.59375H3.66797V0.40625ZM16.5879 20.2168L15.7503 20.7631L17.5879 23.5807V20.2168H16.5879ZM16.5879 0.40625V-0.59375H15.5879V0.40625H16.5879ZM19.9453 0.40625H20.9453V-0.59375H19.9453V0.40625ZM19.9453 25H16.5527V27H19.9453V25ZM17.3899 25.4531L4.50515 5.73042L2.83079 6.82427L15.7156 26.5469L17.3899 25.4531ZM2.66797 6.27734V26H4.66797V6.27734H2.66797ZM3.66797 25H0.275391V27H3.66797V25ZM1.27539 26V0.40625H-0.724609V26H1.27539ZM0.275391 1.40625H3.66797V-0.59375H0.275391V1.40625ZM2.83036 0.952518L15.7503 20.7631L17.4255 19.6705L4.50558 -0.140018L2.83036 0.952518ZM17.5879 20.2168V0.40625H15.5879V20.2168H17.5879ZM16.5879 1.40625H19.9453V-0.59375H16.5879V1.40625ZM18.9453 0.40625V26H20.9453V0.40625H18.9453ZM27.0293 23.8203L26.3049 24.5097L26.3073 24.5122L27.0293 23.8203ZM25.6758 11.375L24.7771 10.9363L24.7757 10.9393L25.6758 11.375ZM28.6992 7.89453L29.2415 8.73472L29.2434 8.73349L28.6992 7.89453ZM40.7402 17.4219V18.4219H41.7402V17.4219H40.7402ZM27.8555 17.4219V16.4219H26.8302L26.8558 17.4469L27.8555 17.4219ZM29.4902 21.9746L28.7465 22.6432L28.7537 22.651L29.4902 21.9746ZM38.5078 21.1309L39.1222 20.3419L38.3303 19.7251L37.7165 20.5194L38.5078 21.1309ZM40.4941 22.6777L41.3323 23.2231L41.8333 22.4532L41.1086 21.8888L40.4941 22.6777ZM29.6133 10.7422L30.3426 11.4264L30.3467 11.422L29.6133 10.7422ZM27.9609 14.75L26.9684 14.6285L26.831 15.75H27.9609V14.75ZM37.4883 14.75V15.75H38.4883V14.75H37.4883ZM37.4883 14.5039H38.4883V14.4756L38.4867 14.4473L37.4883 14.5039ZM36.1523 10.6719L35.3986 11.329L35.4028 11.3338L36.1523 10.6719ZM33.3223 25.3516C30.9857 25.3516 29.1594 24.5978 27.7513 23.1284L26.3073 24.5122C28.1336 26.4179 30.5026 27.3516 33.3223 27.3516V25.3516ZM27.7537 23.1309C26.3491 21.6551 25.6035 19.6537 25.6035 17.0176H23.6035C23.6035 20.0533 24.4751 22.5871 26.3049 24.5097L27.7537 23.1309ZM25.6035 17.0176V16.4199H23.6035V17.0176H25.6035ZM25.6035 16.4199C25.6035 14.6615 25.936 13.1324 26.5758 11.8107L24.7757 10.9393C23.9859 12.5707 23.6035 14.4049 23.6035 16.4199H25.6035ZM26.5744 11.8137C27.2276 10.4757 28.1177 9.46006 29.2415 8.73472L28.1569 7.05435C26.7026 7.99307 25.5771 9.29771 24.7771 10.9363L26.5744 11.8137ZM29.2434 8.73349C30.3865 7.992 31.6046 7.62891 32.918 7.62891V5.62891C31.2079 5.62891 29.6135 6.10956 28.155 7.05557L29.2434 8.73349ZM32.918 7.62891C35.1485 7.62891 36.7691 8.35066 37.9185 9.71623L39.4486 8.4283C37.8559 6.53606 35.6327 5.62891 32.918 5.62891V7.62891ZM37.9185 9.71623C39.0846 11.1016 39.7402 13.1702 39.7402 16.0684H41.7402C41.7402 12.8962 41.0247 10.3008 39.4486 8.4283L37.9185 9.71623ZM39.7402 16.0684V17.4219H41.7402V16.0684H39.7402ZM40.7402 16.4219H27.8555V18.4219H40.7402V16.4219ZM26.8558 17.4469C26.9074 19.5097 27.5136 21.2717 28.7466 22.6432L30.2339 21.3061C29.3809 20.3572 28.8973 19.0841 28.8552 17.3969L26.8558 17.4469ZM28.7537 22.651C30.0056 24.0142 31.6127 24.6973 33.498 24.6973V22.6973C32.1491 22.6973 31.0842 22.2319 30.2268 21.2982L28.7537 22.651ZM33.498 24.6973C34.782 24.6973 35.9394 24.4347 36.923 23.8561L35.909 22.1322C35.2989 22.4911 34.511 22.6973 33.498 22.6973V24.6973ZM36.923 23.8561C37.836 23.3191 38.628 22.6107 39.2991 21.7423L37.7165 20.5194C37.1923 21.1979 36.5898 21.7317 35.909 22.1322L36.923 23.8561ZM37.8934 21.9198L39.8797 23.4667L41.1086 21.8888L39.1222 20.3419L37.8934 21.9198ZM39.656 22.1323C38.2658 24.2687 36.208 25.3516 33.3223 25.3516V27.3516C36.8116 27.3516 39.535 25.9852 41.3323 23.2231L39.656 22.1323ZM32.918 8.30078C31.3276 8.30078 29.9601 8.89689 28.8799 10.0624L30.3467 11.422C31.0477 10.6656 31.8833 10.3008 32.918 10.3008V8.30078ZM28.884 10.0579C27.8065 11.2063 27.1966 12.7646 26.9684 14.6285L28.9535 14.8715C29.1472 13.2901 29.6388 12.1765 30.3425 11.4264L28.884 10.0579ZM27.9609 15.75H37.4883V13.75H27.9609V15.75ZM38.4883 14.75V14.5039H36.4883V14.75H38.4883ZM38.4867 14.4473C38.3849 12.6539 37.8942 11.1336 36.9019 10.0099L35.4028 11.3338C36.0042 12.0149 36.4041 13.0492 36.4899 14.5606L38.4867 14.4473ZM36.9061 10.0147C35.8951 8.85502 34.5273 8.30078 32.918 8.30078V10.3008C34.0274 10.3008 34.8159 10.6606 35.3986 11.329L36.9061 10.0147ZM50.9004 13.9238L50.0429 14.4383L50.895 15.8585L51.755 14.4431L50.9004 13.9238ZM55.1191 6.98047V5.98047H54.5566L54.2645 6.46121L55.1191 6.98047ZM58.916 6.98047L59.75 7.53229L60.7768 5.98047H58.916V6.98047ZM52.6934 16.3848L51.8594 15.8329L51.4927 16.3871L51.8615 16.9398L52.6934 16.3848ZM59.1094 26V27H60.9788L59.9412 25.445L59.1094 26ZM55.3477 26L54.4967 26.5253L54.7898 27H55.3477V26ZM50.9531 18.8809L51.8041 18.3556L50.9531 16.9771L50.1022 18.3556L50.9531 18.8809ZM46.5586 26V27H47.1165L47.4095 26.5253L46.5586 26ZM42.7793 26L41.9475 25.445L40.9098 27H42.7793V26ZM49.1953 16.3848L50.0271 16.9398L50.3959 16.3871L50.0293 15.8329L49.1953 16.3848ZM42.9727 6.98047V5.98047H41.1119L42.1387 7.53229L42.9727 6.98047ZM46.7344 6.98047L47.5919 6.46597L47.3006 5.98047H46.7344V6.98047ZM51.755 14.4431L55.9738 7.49973L54.2645 6.46121L50.0458 13.4046L51.755 14.4431ZM55.1191 7.98047H58.916V5.98047H55.1191V7.98047ZM58.0821 6.42865L51.8594 15.8329L53.5273 16.9366L59.75 7.53229L58.0821 6.42865ZM51.8615 16.9398L58.2776 26.555L59.9412 25.445L53.5252 15.8297L51.8615 16.9398ZM59.1094 25H55.3477V27H59.1094V25ZM56.1986 25.4747L51.8041 18.3556L50.1022 19.4061L54.4967 26.5253L56.1986 25.4747ZM50.1022 18.3556L45.7077 25.4747L47.4095 26.5253L51.8041 19.4061L50.1022 18.3556ZM46.5586 25H42.7793V27H46.5586V25ZM43.6111 26.555L50.0271 16.9398L48.3635 15.8297L41.9475 25.445L43.6111 26.555ZM50.0293 15.8329L43.8066 6.42865L42.1387 7.53229L48.3613 16.9366L50.0293 15.8329ZM42.9727 7.98047H46.7344V5.98047H42.9727V7.98047ZM45.8769 7.49496L50.0429 14.4383L51.7579 13.4093L47.5919 6.46597L45.8769 7.49496ZM66.791 2.375H67.791V1.375H66.791V2.375ZM66.791 6.98047H65.791V7.98047H66.791V6.98047ZM70.3418 6.98047H71.3418V5.98047H70.3418V6.98047ZM70.3418 9.49414V10.4941H71.3418V9.49414H70.3418ZM66.791 9.49414V8.49414H65.791V9.49414H66.791ZM67.2656 23.0117L66.4917 23.645L66.4965 23.6508L66.5013 23.6566L67.2656 23.0117ZM70.4297 23.3633H71.4297V22.1263L70.2202 22.3855L70.4297 23.3633ZM70.4297 26L70.6939 26.9645L71.4297 26.7629V26H70.4297ZM63.5391 9.49414H64.5391V8.49414H63.5391V9.49414ZM60.0762 9.49414H59.0762V10.4941H60.0762V9.49414ZM60.0762 6.98047V5.98047H59.0762V6.98047H60.0762ZM63.5391 6.98047V7.98047H64.5391V6.98047H63.5391ZM63.5391 2.375V1.375H62.5391V2.375H63.5391ZM65.791 2.375V6.98047H67.791V2.375H65.791ZM66.791 7.98047H70.3418V5.98047H66.791V7.98047ZM69.3418 6.98047V9.49414H71.3418V6.98047H69.3418ZM70.3418 8.49414H66.791V10.4941H70.3418V8.49414ZM65.791 9.49414V21.2891H67.791V9.49414H65.791ZM65.791 21.2891C65.791 22.1661 65.9697 23.0069 66.4917 23.645L68.0396 22.3785C67.9288 22.2431 67.791 21.9355 67.791 21.2891H65.791ZM66.5013 23.6566C67.0924 24.3571 67.9895 24.5742 68.8828 24.5742V22.5742C68.2527 22.5742 68.0717 22.4164 68.0299 22.3668L66.5013 23.6566ZM68.8828 24.5742C69.3627 24.5742 69.959 24.4869 70.6392 24.3411L70.2202 22.3855C69.5879 22.521 69.1529 22.5742 68.8828 22.5742V24.5742ZM69.4297 23.3633V26H71.4297V23.3633H69.4297ZM70.1655 25.0355C69.3878 25.2486 68.6447 25.3516 67.9336 25.3516V27.3516C68.8396 27.3516 69.7606 27.2202 70.6939 26.9645L70.1655 25.0355ZM67.9336 25.3516C66.6908 25.3516 65.9118 24.9848 65.4122 24.39L63.8808 25.6764C64.8577 26.8394 66.2701 27.3516 67.9336 27.3516V25.3516ZM65.4122 24.39C64.8768 23.7526 64.5391 22.766 64.5391 21.2891H62.5391C62.5391 23.0465 62.9396 24.556 63.8808 25.6764L65.4122 24.39ZM64.5391 21.2891V9.49414H62.5391V21.2891H64.5391ZM63.5391 8.49414H60.0762V10.4941H63.5391V8.49414ZM61.0762 9.49414V6.98047H59.0762V9.49414H61.0762ZM60.0762 7.98047H63.5391V5.98047H60.0762V7.98047ZM64.5391 6.98047V2.375H62.5391V6.98047H64.5391ZM63.5391 3.375H66.791V1.375H63.5391V3.375Z" fill="black"/>
</svg>
